<svg width="216" height="180" viewBox="0 0 216 180" fill="none" xmlns="http://www.w3.org/2000/svg">
<path fill-rule="evenodd" clip-rule="evenodd" d="M10.3661 73.6979C2.88275 77.5992 -0.543993 83.7805 0.0699563 92.2707C0.549917 98.9018 3.87767 104.001 9.88917 107.313C15.3247 110.309 24.623 109.448 29.5755 105.493C35.1981 101.002 37.0379 96.8247 36.626 89.4859C36.22 82.2371 33.0713 77.2883 26.8448 74.1137C22.1312 71.7098 14.5478 71.5189 10.3661 73.6979ZM188.089 74.2327C185.747 75.3922 182.997 77.5282 181.979 78.9796C172.697 92.2137 181.115 109.107 196.991 109.107C212.669 109.107 221.004 91.7369 211.5 78.8676C206.782 72.4795 195.962 70.3374 188.089 74.2327Z" fill="#F8F6F0"/>
</svg>
