<svg width="1725" height="346" viewBox="0 0 1725 346" fill="none" xmlns="http://www.w3.org/2000/svg">
<path fill-rule="evenodd" clip-rule="evenodd" d="M0 173V346H862.5H1725V173V0H862.5H0V173ZM1295.39 21.516C1316.02 31.302 1304.76 111.291 1272.85 181.7L1265.85 197.134L1266.76 245.317C1267.26 271.818 1268.02 294.288 1268.44 295.25C1272.14 303.632 1295.5 277.105 1311.81 246L1316.79 236.5L1317.44 213.5C1318.77 166.015 1318.93 165.455 1334.05 152.766C1365.26 126.589 1373.6 133.458 1363.48 177C1354.91 213.891 1352.72 231.203 1352.59 263C1352.49 287.414 1353.18 291.762 1357.61 294.663C1367.99 301.464 1389.28 278.769 1406.54 242.5C1416.07 222.482 1417.47 217.287 1420.47 190.66C1423.21 166.376 1424.98 162.09 1436.94 150.71C1464.4 124.598 1472.23 142.43 1457.05 196.492C1452.54 212.545 1448.69 281.779 1451.69 293C1454.36 303.034 1470.31 287.441 1488.96 256.565L1495.97 244.953L1497 217.227C1500.47 123.325 1516.28 63.796 1546.36 31.316C1567.41 8.592 1579.95 20.853 1579.98 64.199C1580 87.529 1577.53 105.179 1568.23 147.884C1567.75 150.113 1567.94 150.229 1571.11 149.66C1613.65 142.03 1636.22 159.456 1644.43 206.25C1645.4 211.751 1650.2 210.407 1680.66 196.114C1697.56 188.187 1697.5 188.203 1699.01 191.012C1702.78 198.061 1684.73 212.341 1655.77 225.217C1649.57 227.973 1644.39 230.326 1644.25 230.448C1644.11 230.57 1642.43 236.374 1640.52 243.346C1629.52 283.477 1604.76 309.58 1567.28 320.565C1531.83 330.952 1510.21 318.938 1501.46 284C1498.07 270.438 1498.23 270.499 1492.16 280.424C1467.21 321.258 1447.26 331.984 1421.72 318.298C1414.38 314.366 1414.12 313.228 1414.06 284.75C1414.03 271.688 1413.66 261 1413.25 261.001C1412.84 261.002 1410.5 264.714 1408.06 269.251C1386.57 309.195 1370.93 322.35 1345.57 321.819C1322.27 321.331 1316.91 314.703 1314.17 282.991L1313.44 274.5L1308.55 282C1284.77 318.513 1273.31 326.573 1250.89 322.572C1231.65 319.142 1229.05 314.734 1227.32 282.75C1226.98 276.288 1226.49 271 1226.25 271C1226.01 271 1220.11 276.445 1213.15 283.1C1179.14 315.621 1147.67 327.937 1104.09 325.777C1068.72 324.023 1036.51 294.014 1025.28 252.337C1019.95 232.586 1021.69 189.109 1029 159.18C1043.47 99.899 1084.22 52.833 1136.5 35.009C1146.48 31.604 1146.53 31.599 1168.66 31.204L1190.83 30.81L1198.95 35.036C1207.94 39.71 1215.55 46.026 1220.01 52.516C1239.46 80.782 1217.61 138.974 1188.8 135.649C1174.98 134.054 1173.56 127.33 1183.66 111.365C1196.22 91.51 1198.26 82.177 1193 68.559C1186.01 50.425 1161.69 43.775 1137.74 53.449C1109.1 65.017 1077.35 113.231 1064.94 164C1061.53 177.987 1061.41 222.305 1064.76 234.284C1083.89 302.695 1150.24 318.832 1201.48 267.533C1224.22 244.765 1226.38 240.084 1228.54 209C1234.79 119.169 1243.21 66.771 1255.09 43.942C1264.56 25.75 1282.85 15.567 1295.39 21.516ZM1287.09 38.91C1280.23 45.772 1275.86 68.022 1270.98 120.935C1269.89 132.725 1269.03 145.325 1269.07 148.935L1269.15 155.5L1271.63 148.5C1285.47 109.419 1292 78.343 1292 51.585C1292 38.268 1290.81 35.192 1287.09 38.91ZM1559.1 53.812C1549.04 73.531 1535.79 154.063 1537.18 187L1537.5 194.5L1543.7 176C1560.16 126.861 1565.71 102.346 1566.68 74.5C1567.46 51.951 1564.36 43.498 1559.1 53.812ZM177.911 81.961C210.005 86.004 233.345 98.808 243.358 117.861C257.403 144.589 248.855 177.324 223.615 193.47C216.716 197.883 216.58 197.208 225.25 201.546C248.268 213.06 259.839 229.743 261.635 254.002C264.093 287.217 243.812 310.63 203.469 321.147L191.5 324.267L151 325.049C128.725 325.479 90.138 325.869 65.25 325.915L20 326V202.888V79.777L94.25 80.276C142.556 80.601 171.788 81.19 177.911 81.961ZM805.688 81.354C806.135 81.8 806.725 101.566 807 125.278L807.5 168.39L847.5 124.209L887.5 80.028L929 80.132C951.825 80.19 971.818 80.521 973.428 80.868C976.733 81.581 982.488 74.799 921.135 142.5C891.939 174.717 881 187.505 881 189.42C881 190.163 903.514 220.86 931.031 257.636L981.063 324.5L977.281 325.192C975.202 325.573 953.925 325.906 930 325.932L886.5 325.979L856 285.411L825.5 244.843L816.25 254.581L807 264.318V295.159V326H766H725V202.883V79.767L764.938 80.155C786.904 80.368 805.241 80.908 805.688 81.354ZM102 156.362V175L120.25 174.937C156.542 174.812 164.641 172.147 166.667 159.662C169.333 143.238 161.204 138.868 126.75 138.203L102 137.725V156.362ZM1577.91 167.956C1560.89 173.116 1566.59 200.174 1586.88 210.433C1593.42 213.744 1604.5 217 1609.22 217H1613.23L1612.51 210.25C1609.24 179.715 1595.31 162.683 1577.91 167.956ZM1541.58 220.095L1535.97 231.69L1537.01 244.095C1541.09 292.853 1546.76 303.595 1566.24 299.519C1587.59 295.052 1602.91 277.449 1610.55 248.621C1612.83 239.997 1611.96 239.01 1602.06 238.98C1578.99 238.909 1561.45 229.673 1548.84 210.962L1547.18 208.5L1541.58 220.095ZM102 248.925V268H132.033C165.375 268 167.268 267.656 174.192 260.343C181.643 252.473 178.774 238.132 168.666 232.727C164.656 230.584 163.327 230.488 133.25 230.175L102 229.849V248.925Z" fill="#1A1A1A"/>
</svg>
