<svg width="450" height="346" viewBox="0 0 450 346" fill="none" xmlns="http://www.w3.org/2000/svg">
<rect width="450" height="346" fill="#1A1A1A"/>
<path fill-rule="evenodd" clip-rule="evenodd" d="M117.479 82.1527C103.182 84.2368 85.2748 90.6019 73.0558 97.9437C41.3234 117.008 20.7551 147.151 14.3327 184.001C11.9759 197.527 12.8228 218.852 16.2585 232.479C30.2644 288.033 78.6014 325.938 135.438 325.938C161.046 325.938 183.08 319.096 205.705 304.119C206.685 303.47 205.309 301.603 200.349 296.85C188.443 285.439 177.189 268.306 171.423 252.815L169.691 248.162L162.54 252.016C153.379 256.952 145.51 258.967 135.393 258.967C119.812 258.967 107.739 253.875 96.3659 242.505C85.1988 231.343 79.8823 218.849 79.9123 203.848C79.9433 188.097 85.0678 175.815 96.3659 164.409C110.252 150.391 129.364 144.976 148.799 149.556C158.338 151.804 166.489 156.552 174.419 164.479C185.15 175.205 190.877 188.123 190.896 201.637C190.982 262.915 233.862 314.057 293.919 324.514C307.606 326.896 329.925 326.045 342.961 322.641C395.008 309.053 430.57 267.669 436.002 214.365C439.883 176.273 423.393 135.679 393.871 110.659C355.017 77.7276 301.708 71.7053 256.812 95.1749C251.546 97.9277 245.957 101.201 244.391 102.45L241.544 104.719L249.313 112.095C260.088 122.328 268.832 134.382 275.022 147.54L280.279 158.715L287.345 154.904C297.537 149.408 305.3 147.665 316.877 148.27C346.808 149.836 369.247 173.497 369.247 203.492C369.247 219.154 363.914 231.982 352.831 242.975C331.175 264.454 296.601 264.481 274.983 243.035C263.293 231.437 259.26 221.067 257.855 198.994C256.829 182.88 253.873 169.009 248.919 157.063C232.586 117.667 197.824 89.9532 155.51 82.5915C146.006 80.9372 127.291 80.7213 117.479 82.1527Z" fill="#F8F6F0"/>
</svg>
