<svg width="702" height="702" viewBox="0 0 702 702" fill="none" xmlns="http://www.w3.org/2000/svg">
<path fill-rule="evenodd" clip-rule="evenodd" d="M82.8456 0.557407C37.6143 8.20603 7.47788 37.7869 1.00871 80.8844C-0.014128 87.6966 -0.430654 612.295 0.581269 618.499C7.98972 663.898 37.6874 694.309 80.9561 700.804C87.7683 701.827 612.367 702.243 618.571 701.231C663.97 693.823 694.381 664.125 700.876 620.857C701.898 614.044 702.315 89.4454 701.303 83.242C693.895 37.8428 664.197 7.43176 620.928 0.936983C614.502 -0.0279129 88.4993 -0.398671 82.8456 0.557407ZM496.465 135.55C497.703 136.788 503.789 508.353 502.554 509.134C502.207 509.353 485.968 512.046 485.968 503.466C482.218 507.638 461.662 478.428 416.897 433.669C349.97 366.75 353.469 369.007 351.815 369.007C350.178 369.007 348.53 371.751 328.092 392.1C293.474 426.567 216.628 506.829 214.723 508.504C212.526 510.435 204.016 508.361 206.745 500.946C203.806 505.212 205.876 132.477 206.535 131.028C205.695 130.188 204.215 130.291 351.185 130.398C489.117 130.398 498.145 125.359 496.465 135.55Z" fill="#F8F0F6"/>
<path d="M514.647 116.122H187.22V560.486L350.933 396.773L514.647 560.486V116.122Z" stroke="#1A1A1A" stroke-width="46.7752"/>
</svg>
