<svg width="478" height="478" viewBox="0 0 478 478" fill="none" xmlns="http://www.w3.org/2000/svg">
<rect x="40" y="40" width="398" height="398" stroke="#F8F0F6" stroke-width="80"/>
<path fill-rule="evenodd" clip-rule="evenodd" d="M0 239C0 478 0 478 239 478C478 478 478 478 478 239C478 0 478 0 239 0C0 0 0 0 0 239ZM258.638 92.543C264.355 93.392 273.638 95.434 279.266 97.081C284.895 98.728 295.35 102.938 302.5 106.437C309.65 109.935 319.533 115.655 324.463 119.149C329.393 122.642 337.718 129.798 342.963 135.051C348.208 140.304 355.115 148.268 358.312 152.749C361.508 157.23 366.531 165.532 369.473 171.198C372.415 176.864 376.207 185.46 377.901 190.301C379.594 195.142 381.906 203.467 383.038 208.801C384.264 214.576 385.33 224.366 385.674 233C386.104 243.78 385.833 250.341 384.617 258.573C383.718 264.663 381.835 273.605 380.432 278.445C379.029 283.284 376.122 291.324 373.972 296.311C371.822 301.298 366.929 310.58 363.098 316.939C359.267 323.297 355.852 329.647 355.508 331.049C355.146 332.529 356.797 343.07 359.442 356.158C361.949 368.566 364 379.487 364 380.426C364 381.574 363.425 381.974 362.25 381.644C361.288 381.375 350.964 378.639 339.308 375.566C327.653 372.492 316.146 369.708 313.737 369.377C310.006 368.866 307.515 369.518 296.928 373.777C290.093 376.527 279.903 379.931 274.284 381.343C268.665 382.754 259.215 384.436 253.284 385.081C246.961 385.768 237.781 385.989 231.091 385.613C224.816 385.261 215.281 384.076 209.902 382.98C204.524 381.884 196.158 379.594 191.312 377.892C186.465 376.19 178.496 372.815 173.603 370.393C168.709 367.971 161.059 363.539 156.603 360.546C152.146 357.552 145.186 352.212 141.135 348.679C137.084 345.146 131.126 339.198 127.894 335.461C124.662 331.723 119.761 325.4 117.002 321.409C114.243 317.418 109.789 309.731 107.105 304.326C104.421 298.922 101.016 290.956 99.54 286.624C98.064 282.292 95.994 274.798 94.941 269.971C93.887 265.144 92.568 255.975 92.008 249.595C91.347 242.051 91.322 234.233 91.936 227.232C92.456 221.311 93.769 212.425 94.855 207.484C95.94 202.543 98.239 194.62 99.963 189.878C101.686 185.136 104.909 177.711 107.124 173.378C109.339 169.045 113.552 161.9 116.485 157.5C119.418 153.1 124.958 145.9 128.794 141.5C132.631 137.1 139.309 130.521 143.635 126.879C147.961 123.238 155.325 117.78 160 114.75C164.675 111.72 171.803 107.586 175.84 105.563C179.877 103.54 187.752 100.363 193.34 98.504C198.928 96.644 207.325 94.438 212 93.6C216.675 92.763 221.85 91.903 223.5 91.689C225.15 91.475 231.392 91.232 237.372 91.15C243.351 91.067 252.921 91.695 258.638 92.543Z" fill="#F8F0F6"/>
<path fill-rule="evenodd" clip-rule="evenodd" d="M222.729 70.7392C119.093 80.4602 47.7597 184.445 76.3487 284.125C104.429 382.03 210.772 433.279 304.093 393.879C312.458 390.347 312.458 390.347 345.725 399.535C381.131 409.313 382.171 409.447 386.484 404.794C390.452 400.513 390.347 399.15 383.634 367.899C376.051 332.597 376.261 336.179 381.32 328.409C407.642 287.983 414.298 233.663 398.754 186.122C374.334 111.43 301.051 63.3942 222.729 70.7392ZM270.229 94.9802C372.592 119.025 418.439 234.252 360.207 321.125C353.468 331.179 353.504 329.876 359.23 356.726C362.056 369.977 364.115 381.072 363.805 381.382C363.495 381.692 351.37 378.668 336.861 374.661C310.48 367.377 310.48 367.377 300.605 371.891C207.341 414.515 101.136 352.737 92.2767 250.71C83.8157 153.273 175.78 72.7932 270.229 94.9802Z" fill="black" stroke="black" stroke-width="10"/>
</svg>
