<svg width="30" height="30" viewBox="0 0 30 30" fill="none" xmlns="http://www.w3.org/2000/svg">
<rect width="30" height="30" fill="#F8F0F6"/>
<path fill-rule="evenodd" clip-rule="evenodd" d="M17.6323 2.02398C17.2855 2.08348 17.2115 2.11985 15.8226 2.91444C14.2691 3.8033 14.2213 3.83203 14.2485 3.85924C14.2604 3.87111 14.3924 3.9128 14.542 3.95184L14.8139 4.02283L16.1018 3.28555C17.4776 2.49789 17.6937 2.41161 18.1407 2.47087C18.4703 2.51461 18.8646 2.71804 19.0635 2.94697C19.1549 3.05215 19.5451 3.68311 19.9306 4.34911C20.6871 5.65594 20.6378 5.59957 21.1127 5.70205L21.2742 5.7369L21.1778 5.57725C21.1248 5.4894 20.7553 4.85128 20.3567 4.15916C19.9581 3.46704 19.5563 2.80708 19.464 2.69259C19.0658 2.19877 18.2816 1.91252 17.6323 2.02398ZM8.72341 3.87999C8.52824 3.95758 8.3505 4.16082 8.27537 4.39237C8.23648 4.51222 7.96989 5.48641 7.68302 6.55723C7.39611 7.62805 6.67849 10.2992 6.08838 12.4931C5.49822 14.6869 4.74679 17.481 4.41856 18.702C3.9569 20.4195 3.82878 20.9594 3.85266 21.0868C3.88424 21.2552 4.06422 21.5075 4.20734 21.5842C4.25131 21.6077 6.20961 22.1402 8.5591 22.7675C10.9086 23.3949 14.6367 24.3901 16.8436 24.9793C19.0505 25.5684 20.9439 26.0504 21.051 26.0504C21.2806 26.0505 21.5249 25.9038 21.6446 25.6942C21.6893 25.6159 22.093 24.1842 22.5418 22.5127C22.9906 20.8412 23.9862 17.1381 24.7543 14.2838C25.5225 11.4294 26.151 9.01898 26.151 8.92729C26.151 8.58648 25.9323 8.34358 25.5184 8.22453C24.4298 7.9115 9.03179 3.82742 8.94902 3.82975C8.89023 3.83141 8.7887 3.85401 8.72341 3.87999ZM4.28341 9.54418C2.43676 10.6025 2.21661 10.8077 2.04495 11.6309C1.96978 11.9914 1.98806 12.2952 2.10611 12.6468C2.15663 12.7974 3.77156 15.6535 3.85119 15.7331C3.85898 15.7409 3.90291 15.6083 3.94887 15.4385L4.03245 15.1298L3.29546 13.8589C2.89006 13.1599 2.53282 12.4919 2.50153 12.3743C2.37735 11.908 2.55585 11.2904 2.91585 10.9408C3.0151 10.8444 3.36336 10.6119 3.68983 10.4241C4.0163 10.2363 4.57707 9.91292 4.93602 9.70554L5.58858 9.32845L5.6638 9.0697C5.70521 8.92738 5.73204 8.79223 5.72354 8.76939C5.71499 8.74651 5.06694 9.09515 4.28341 9.54418ZM10.9885 9.69286C12.1593 9.84492 13.2751 10.1829 14.3506 10.7114C16.4984 11.7669 18.2182 13.4859 19.2684 15.6272C19.9248 16.9655 20.3576 18.7008 20.3576 19.9941V20.3046H19.2953H18.233L18.2004 19.8653C18.0374 17.6683 17.25 15.8823 15.7801 14.3756C14.378 12.9385 12.7451 12.1111 10.752 11.8278C10.4851 11.7898 10.1225 11.7583 9.94619 11.7579L9.62565 11.757V10.6886V9.62012H10.0269C10.2475 9.62012 10.6802 9.65283 10.9885 9.69286ZM10.7765 13.3534C12.7303 13.6751 14.4899 14.8314 15.5735 16.5057C16.2328 17.5245 16.6175 18.6624 16.6851 19.7941L16.7157 20.3046H15.6496H14.5835L14.5289 19.8166C14.3647 18.3464 13.5606 17.0375 12.3197 16.22C11.6201 15.7591 10.8496 15.4892 10.0426 15.4223L9.6494 15.3897L9.63653 14.37C9.6295 13.809 9.63372 13.3241 9.64593 13.2922C9.67238 13.2233 10.1396 13.2486 10.7765 13.3534ZM26.0481 14.4748L25.9709 14.7708L26.7238 16.0714C27.2662 17.0086 27.4854 17.4315 27.5084 17.5849C27.5916 18.1391 27.414 18.6784 27.0429 18.9988C26.931 19.0953 26.2954 19.4877 25.6304 19.8708L24.4212 20.5672L24.336 20.8471C24.2891 21.001 24.2607 21.1369 24.2728 21.149C24.2849 21.1611 24.9422 20.7998 25.7334 20.346C27.2552 19.4733 27.5509 19.2528 27.7676 18.8289C28.0058 18.363 28.0643 17.8244 27.9274 17.3572C27.8607 17.1295 26.2131 14.1849 26.15 14.1805C26.1363 14.1796 26.0905 14.312 26.0481 14.4748ZM11.7446 17.5645C12.0528 17.7214 12.3519 18.0592 12.4536 18.365C12.565 18.7005 12.5323 19.2115 12.3801 19.513C12.1338 20.0008 11.6697 20.2783 11.0977 20.2799C10.8032 20.2807 10.6951 20.258 10.4728 20.1488C10.1614 19.996 9.89428 19.7208 9.75363 19.4081C9.61364 19.0972 9.61886 18.608 9.76569 18.2736C9.90435 17.9579 10.2902 17.5968 10.6053 17.488C10.9415 17.3718 11.4308 17.4046 11.7446 17.5645ZM8.77954 24.2551C8.81838 24.3154 9.20093 24.9708 9.62964 25.7115C10.0584 26.4522 10.4785 27.1392 10.5632 27.2382C11.0194 27.7713 11.8523 28.0216 12.5595 27.8381C12.795 27.7771 15.7514 26.1263 15.7514 26.0559C15.7514 26.0387 15.6241 25.9915 15.4685 25.951L15.1856 25.8773L13.9158 26.6056C13.2174 27.0062 12.5594 27.3574 12.4536 27.3861C12.3477 27.4147 12.1101 27.4285 11.9256 27.4168C11.5226 27.3912 11.1717 27.2211 10.921 26.9299C10.8307 26.8249 10.4423 26.1961 10.058 25.5326C9.28992 24.2065 9.38879 24.3162 8.83799 24.178C8.71263 24.1465 8.71097 24.1487 8.77954 24.2551Z" fill="#1A1A1A"/>
</svg>
