<svg width="3952" height="3952" viewBox="0 0 3952 3952" fill="none" xmlns="http://www.w3.org/2000/svg">
<path fill-rule="evenodd" clip-rule="evenodd" d="M90 1969.26C90 2517.9 117 2913 131.603 3195C131.603 3402.65 44.1879 3837.5 164.5 3837.5C183.85 3862.11 121.593 3813.25 146 3833.43C392.367 4037.2 1073.05 3916.51 1950 3916.51C2895.16 3916.51 3498.85 4043.01 3727.5 3787.5C3948.81 3540.19 3810 2927.01 3810 1969.26C3776.65 764.334 3907.88 272.992 3662 93.9999C3450.83 -59.7257 2950.99 22.001 1950 22.0011C-162 22.0014 90 -236.999 90 1969.26ZM3095.42 620.589C3095.51 613.965 3093.84 611.808 3087.17 609.957C3080.76 608.177 814.521 608.651 809.513 610.434C803.256 612.662 800.891 617.319 802.657 623.935C803.19 625.933 1001.43 1008.41 1243.2 1473.89C1734.2 2419.21 1692.52 2338.59 1694.5 2346.96C1695.78 2352.41 1695.97 2418.04 1695.99 2865.14C1696 3212.88 1696.34 3378.26 1697.04 3380.78C1699.02 3387.91 1704.86 3390.23 1711.79 3386.66C1715.5 3384.75 2224.65 2950.93 2239.22 2937.26C2253.08 2924.27 2251.42 2963.53 2252 2633.67C2252.5 2347.21 2252.5 2347.21 2254.77 2340.92C2256.02 2337.47 2445.66 1950.29 2676.19 1480.53C3084.73 648.036 3095.34 626.277 3095.42 620.589Z" fill="#F8F0F6"/>
<path d="M3019.89 663.001H1935.47H896L1761.83 2330.13V3275.22L2201.97 2899.56V2330.13L3019.89 663.001Z" stroke="black" stroke-width="250"/>
<path d="M100 100H3852V3852H100V100Z" stroke="#F8F0F6" stroke-width="200"/>
</svg>
