<svg width="26" height="26" viewBox="0 0 26 26" fill="none" xmlns="http://www.w3.org/2000/svg">
<path fill-rule="evenodd" clip-rule="evenodd" d="M15.6323 0.0240705C15.2855 0.0838058 15.2115 0.120324 13.8226 0.918051C12.2691 1.81041 12.2213 1.83925 12.2485 1.86657C12.2604 1.87849 12.3924 1.92035 12.542 1.95953L12.8139 2.03081L14.1018 1.29062C15.4776 0.499856 15.6937 0.413232 16.1407 0.472729C16.4703 0.516637 16.8646 0.720872 17.0635 0.950707C17.1549 1.05631 17.5451 1.68975 17.9306 2.35837C18.6871 3.67036 18.6378 3.61377 19.1127 3.71665L19.2742 3.75164L19.1778 3.59136C19.1248 3.50317 18.7553 2.86252 18.3567 2.16768C17.9581 1.47283 17.5563 0.81026 17.464 0.695319C17.0658 0.199558 16.2816 -0.0878201 15.6323 0.0240705ZM6.72341 1.8874C6.52824 1.9653 6.3505 2.16935 6.27537 2.4018C6.23648 2.52213 5.96989 3.50016 5.68302 4.57521C5.39611 5.65025 4.67849 8.33191 4.08838 10.5344C3.49822 12.737 2.74679 15.5421 2.41856 16.7679C1.9569 18.4921 1.82878 19.0342 1.85266 19.1621C1.88424 19.3312 2.06422 19.5845 2.20734 19.6614C2.25131 19.685 4.20961 20.2196 6.5591 20.8494C8.90864 21.4793 12.6367 22.4785 14.8436 23.0699C17.0505 23.6613 18.9439 24.1453 19.051 24.1453C19.2806 24.1453 19.5249 23.9981 19.6446 23.7876C19.6893 23.709 20.093 22.2717 20.5418 20.5936C20.9906 18.9155 21.9862 15.1979 22.7543 12.3322C23.5225 9.46655 24.151 7.04667 24.151 6.95461C24.151 6.61246 23.9323 6.3686 23.5184 6.24909C22.4298 5.93482 7.03179 1.83463 6.94902 1.83696C6.89023 1.83863 6.7887 1.86133 6.72341 1.8874ZM2.28341 7.57394C0.436758 8.6364 0.21661 8.84245 0.0449464 9.66887C-0.0302248 10.0308 -0.0119425 10.3358 0.106109 10.6888C0.156635 10.84 1.77156 13.7073 1.85119 13.7873C1.85898 13.7951 1.90291 13.662 1.94887 13.4916L2.03245 13.1816L1.29546 11.9057C0.890065 11.2039 0.532823 10.5332 0.50153 10.4153C0.377352 9.94705 0.555854 9.32705 0.91585 8.97603C1.0151 8.8793 1.36336 8.64589 1.68983 8.45734C2.0163 8.26879 2.57707 7.94413 2.93602 7.73594L3.58858 7.35736L3.6638 7.09759C3.70521 6.95471 3.73204 6.81903 3.72354 6.7961C3.71499 6.77312 3.06694 7.12314 2.28341 7.57394ZM8.98847 7.72321C10.1593 7.87586 11.2751 8.21516 12.3506 8.74577C14.4984 9.80541 16.2182 11.5313 17.2684 13.6809C17.9248 15.0245 18.3576 16.7667 18.3576 18.0651V18.3768H17.2953H16.233L16.2004 17.9358C16.0374 15.7301 15.25 13.9371 13.7801 12.4244C12.378 10.9817 10.7451 10.151 8.75203 9.86653C8.48511 9.82839 8.1225 9.79683 7.94619 9.79636L7.62565 9.7955V8.72283V7.65017H8.02687C8.24754 7.65017 8.68023 7.68302 8.98847 7.72321ZM8.77654 11.3982C10.7303 11.7211 12.4899 12.882 13.5735 14.5629C14.2328 15.5857 14.6175 16.7281 14.6851 17.8643L14.7157 18.3768H13.6496H12.5835L12.5289 17.8868C12.3647 16.4109 11.5606 15.0968 10.3197 14.2761C9.62009 13.8134 8.84962 13.5424 8.04258 13.4753L7.6494 13.4425L7.63653 12.4188C7.6295 11.8556 7.63372 11.3687 7.64593 11.3367C7.67238 11.2675 8.1396 11.2929 8.77654 11.3982ZM24.0481 12.524L23.9709 12.8212L24.7238 14.1269C25.2662 15.0678 25.4854 15.4923 25.5084 15.6464C25.5916 16.2028 25.414 16.7442 25.0429 17.0658C24.931 17.1627 24.2954 17.5567 23.6304 17.9412L22.4212 18.6404L22.336 18.9214C22.2891 19.0759 22.2607 19.2124 22.2728 19.2245C22.2849 19.2367 22.9422 18.8739 23.7334 18.4184C25.2552 17.5422 25.5509 17.3209 25.7676 16.8953C26.0058 16.4275 26.0643 15.8868 25.9274 15.4178C25.8607 15.1892 24.2131 12.233 24.15 12.2286C24.1363 12.2276 24.0905 12.3606 24.0481 12.524ZM9.74464 15.6259C10.0528 15.7834 10.3519 16.1225 10.4536 16.4296C10.565 16.7664 10.5323 17.2794 10.3801 17.5821C10.1338 18.0718 9.66971 18.3504 9.09774 18.352C8.80318 18.3528 8.6951 18.33 8.47276 18.2204C8.16144 18.067 7.89428 17.7907 7.75363 17.4768C7.61364 17.1646 7.61886 16.6735 7.76569 16.3378C7.90435 16.0208 8.29023 15.6583 8.60525 15.5491C8.9415 15.4324 9.43081 15.4654 9.74464 15.6259ZM6.77954 22.3429C6.81838 22.4034 7.20093 23.0614 7.62964 23.805C8.0584 24.5487 8.47851 25.2384 8.56323 25.3378C9.01943 25.873 9.8523 26.1242 10.5595 25.9401C10.795 25.8788 13.7514 24.2215 13.7514 24.1508C13.7514 24.1336 13.6241 24.0862 13.4685 24.0455L13.1856 23.9715L11.9158 24.7027C11.2174 25.1049 10.5594 25.4575 10.4536 25.4862C10.3477 25.5149 10.1101 25.5288 9.92557 25.517C9.5226 25.4914 9.17167 25.3206 8.92104 25.0282C8.83067 24.9228 8.44233 24.2915 8.05802 23.6254C7.28992 22.2941 7.38879 22.4042 6.83799 22.2655C6.71263 22.2338 6.71097 22.2361 6.77954 22.3429Z" fill="#F8F0F6"/>
</svg>
