<svg width="151" height="158" viewBox="0 0 151 158" fill="none" xmlns="http://www.w3.org/2000/svg">
<path fill-rule="evenodd" clip-rule="evenodd" d="M68.921 41.5V83H75.421H81.921V41.5V0H75.421H68.921V41.5ZM39.7869 15.597C-29.2081 52.405 -2.78405 158 75.421 158C153.772 158 180.096 51.92 110.784 15.497L103.914 11.887L103.037 14.194C102.554 15.462 101.43 18.242 100.54 20.372C99.649 22.502 98.921 24.388 98.921 24.563C98.921 24.739 101.734 26.356 105.171 28.158C160.936 57.379 138.7 144.143 75.421 144.244C11.907 144.346 -10.1361 56.744 46.1569 27.946C53.5539 24.162 53.4039 24.641 49.8119 16.25C47.6329 11.16 48.0529 11.188 39.7869 15.597Z" fill="#F8F0F6"/>
</svg>
