<svg width="148" height="149" viewBox="0 0 148 149" fill="none" xmlns="http://www.w3.org/2000/svg">
<path fill-rule="evenodd" clip-rule="evenodd" d="M50.1881 23.6687L26.4787 47.3379L31.3362 52.1712L36.1938 57.0049L51.8491 41.3824L67.5045 25.7605V73.6368V121.514H74.1206H80.7366V73.6368V25.7605L96.392 41.3824L112.047 57.0049L116.905 52.1712L121.762 47.3379L98.0531 23.6687C85.0133 10.6509 74.2436 0 74.1206 0C73.9975 0 63.2279 10.6509 50.1881 23.6687ZM0.164862 115.17C-0.338841 116.48 0.403039 130.107 1.16036 133.455C2.89553 141.127 6.52731 145.081 13.9144 147.341C17.9325 148.569 129.611 148.599 134.06 147.372C144.366 144.53 147.806 138.308 147.938 122.267L148 114.69H141.384H134.768L134.506 122.614C134.194 132.073 133.777 133.525 131.164 134.248C128.805 134.903 19.4366 134.903 17.0768 134.248C14.4644 133.525 14.0476 132.073 13.7349 122.614L13.4733 114.69L6.95824 114.568C1.24901 114.461 0.408774 114.535 0.164862 115.17Z" fill="#F8F0F6"/>
</svg>
