<svg width="2988" height="2742" viewBox="0 0 2988 2742" fill="none" xmlns="http://www.w3.org/2000/svg">
<path fill-rule="evenodd" clip-rule="evenodd" d="M523.828 1153.09C460.212 1214.86 394.038 1310.93 359.671 1391.4C270.416 1600.37 276.542 1824.33 377.158 2030.79C414.094 2106.58 495.022 2209.65 561.132 2265.11C830.643 2491.19 1207.43 2506.01 1490.14 2301.64C1617.51 2209.56 1702.49 2096.28 1761.15 1940.4C1763.69 1933.65 1750.13 1929.3 1708.37 1923.48C1608.1 1909.51 1490.49 1864.72 1406.08 1808.37L1380.72 1791.44L1359.02 1836.33C1331.21 1893.84 1299.32 1932.16 1249 1968.54C1171.5 2024.57 1093.12 2042.64 995.653 2026.95C899.954 2011.56 828.566 1968.51 774.75 1893.75C718.242 1815.26 699.551 1735.71 714.716 1638.33C733.354 1518.64 808.941 1422.97 922.084 1375.88C977.619 1352.77 1035.24 1347.08 1103.21 1358.02C1195.16 1372.81 1270.12 1416.49 1318.83 1483.68C1539.7 1788.3 1936.96 1888.61 2273.3 1724.69C2349.95 1687.33 2457.9 1602.84 2510.5 1539.03C2720.5 1284.26 2748.51 950.452 2583.78 665.672C2466.06 462.16 2238 319.451 2001.15 301.099C1689.42 276.938 1402.6 438.654 1263.72 716.881C1247.43 749.513 1231.4 785.901 1228.1 797.745L1222.11 819.272L1287.29 828.043C1377.69 840.218 1464.54 868.761 1542.67 911.979L1609.02 948.687L1630.45 904.312C1661.38 840.316 1693.72 803.73 1753.48 765.116C1907.99 665.279 2104.73 702.338 2212.63 851.598C2268.97 929.536 2288.59 1012.55 2273 1107.1C2242.55 1291.86 2070.68 1416.31 1886 1387.32C1786.14 1371.64 1728.78 1334.54 1642.38 1229.76C1579.31 1153.26 1514.71 1094.86 1447.09 1053.23C1224.13 915.917 951.528 903 714.572 1018.52C661.347 1044.46 567.484 1110.68 523.828 1153.09ZM948.793 1637.06C925.605 1683.38 930.796 1726.46 964.393 1766.5C990.634 1797.77 1025.53 1811.18 1067.35 1806.05C1105.16 1801.41 1148.31 1763.69 1158.72 1726.2C1170.53 1683.64 1164.65 1656.23 1136.21 1621.2C1108.11 1586.58 1074.64 1573.28 1032.25 1579.87C1000.16 1584.86 961.754 1611.18 948.793 1637.06ZM1834.72 1000.67C1827.23 1014.86 1821.24 1035.38 1821.4 1046.26C1822.84 1145.49 1925.48 1199.29 2004.45 1142.2C2082.43 1085.83 2061.4 969.419 1967.83 939.553C1921.39 924.728 1859.86 952.975 1834.72 1000.67Z" fill="#F8F0F6"/>
</svg>
