<svg width="511" height="511" viewBox="0 0 511 511" fill="none" xmlns="http://www.w3.org/2000/svg">
<path fill-rule="evenodd" clip-rule="evenodd" d="M0 255.5V511H255.5H511V255.5V0H255.5H0V255.5ZM272.5 69.039C296.723 71.323 317.599 77.398 339.99 88.679C347.971 92.7 358.775 99.025 364 102.734C376.316 111.478 399.522 134.684 408.266 147C421.924 166.239 434.256 194.719 438.993 217.967C441.758 231.535 441.654 236.037 438.508 238.992C433.527 243.672 425.552 240.974 424.511 234.258C419.406 201.323 409.502 176.999 391.469 153.107C355.792 105.838 295.979 79.607 238.5 86.021C198.004 90.54 162.631 107.454 134.731 135.641C107.334 163.319 90.366 199.084 86.067 238.211C81.574 279.104 93.44 322.795 118.057 355.995C123.601 363.473 134.562 376.134 136.054 376.784C136.413 376.941 136.995 373.961 137.348 370.164C138.086 362.227 141.669 349.212 145.516 340.5C152.535 324.601 169.636 304.434 184.872 294.087C193.477 288.243 209.718 280.621 219.637 277.77L227.774 275.431L221.643 271.966C218.271 270.06 211.872 264.894 207.422 260.488C194.396 247.586 187.762 231.767 187.718 213.5C187.688 201.344 189.308 194.267 194.7 183C198.57 174.912 200.528 172.231 207.873 164.966C214.669 158.243 218.318 155.534 225.064 152.203C244.587 142.562 266.029 142.518 285.782 152.079C297.922 157.955 310.006 169.979 315.855 182C318.129 186.675 320.739 193.425 321.655 197C323.802 205.38 323.791 220.457 321.632 229C317.348 245.957 305.432 262.173 290.785 270.981L283.333 275.462L291.417 277.78C302.78 281.039 320.07 289.622 329.5 296.685C338.832 303.676 350.905 316.082 356.267 324.193C365.565 338.256 374 361.335 374 372.712C374 375.162 374.376 377.017 374.835 376.833C376.47 376.18 388.811 361.816 394.37 354.095C397.479 349.777 402.335 341.802 405.16 336.372C411.755 323.699 413.293 322 418.174 322C422.43 322 425.558 324.389 426.567 328.412C427.381 331.655 417.439 350.946 408.226 364C399.549 376.294 376.405 399.459 364 408.266C351.628 417.049 328.358 428.72 313.94 433.373C265.619 448.967 216.353 445.165 171.06 422.346C151.416 412.449 140.253 404.274 123.489 387.511C106.726 370.747 98.551 359.584 88.654 339.94C61.318 285.681 61.318 225.319 88.654 171.06C98.551 151.416 106.726 140.253 123.489 123.489C140.243 106.736 151.417 98.551 171.01 88.679C203.803 72.157 237.145 65.705 272.5 69.039ZM245.393 159.433C224.688 163.303 207.908 179.36 202.522 200.46C195.617 227.505 212.413 256.557 239.855 265.036C248.964 267.851 263.275 267.707 272.058 264.713C294.917 256.92 310.038 236.319 309.985 213.04C309.908 178.977 278.829 153.183 245.393 159.433ZM242.635 290.135C216.144 293.537 190.137 307.532 175.069 326.494C171.777 330.637 167.516 336.833 165.601 340.263C158.184 353.55 153.02 375.673 154.506 387.797C155.102 392.658 155.54 393.375 159.828 396.516C167.06 401.813 188.405 412.446 199.592 416.324C211.664 420.509 224.998 423.482 238.211 424.933C275.977 429.082 316.86 419.08 349.117 397.8L356.831 392.711L356.473 381.605C355.701 357.63 346.554 336.535 329.524 319.455C313.548 303.431 291.644 293.067 267.5 290.109C257.337 288.863 252.497 288.868 242.635 290.135Z" fill="#F8F0F6"/>
</svg>
