<svg width="30" height="30" viewBox="0 0 30 30" fill="none" xmlns="http://www.w3.org/2000/svg">
<rect width="30" height="30" fill="#F8F0F6"/>
<mask id="path-2-inside-1_201_2" fill="white">
<path d="M19.1207 4.801C21.494 5.7599 23.4587 7.51648 24.6762 9.76816C25.8936 12.0198 26.2877 14.6256 25.7905 17.1366C25.2933 19.6476 23.936 21.9066 21.9523 23.5244C19.9687 25.1422 17.4829 26.0176 14.9232 25.9998C12.3635 25.9819 9.89024 25.0719 7.92936 23.4265C5.96848 21.7811 4.64282 19.5034 4.18074 16.9857C3.71865 14.468 4.14908 11.868 5.39788 9.63357C6.64667 7.39911 8.63564 5.67013 11.0222 4.74446L15 15L19.1207 4.801Z"/>
</mask>
<path d="M19.1207 4.801C21.494 5.7599 23.4587 7.51648 24.6762 9.76816C25.8936 12.0198 26.2877 14.6256 25.7905 17.1366C25.2933 19.6476 23.936 21.9066 21.9523 23.5244C19.9687 25.1422 17.4829 26.0176 14.9232 25.9998C12.3635 25.9819 9.89024 25.0719 7.92936 23.4265C5.96848 21.7811 4.64282 19.5034 4.18074 16.9857C3.71865 14.468 4.14908 11.868 5.39788 9.63357C6.64667 7.39911 8.63564 5.67013 11.0222 4.74446L15 15L19.1207 4.801Z" fill="#F8F0F6" stroke="black" stroke-width="4" mask="url(#path-2-inside-1_201_2)"/>
<circle cx="15" cy="15.0001" r="9" fill="#F8F0F6"/>
<line x1="15" y1="3" x2="15" y2="15" stroke="black" stroke-width="2"/>
</svg>
