<svg width="1697" height="307" viewBox="0 0 1697 307" fill="none" xmlns="http://www.w3.org/2000/svg">
<path fill-rule="evenodd" clip-rule="evenodd" d="M1277.12 1.20304C1259 3.90704 1246.22 20.608 1238.44 51.733C1232.65 74.932 1224.07 146.833 1221.42 194.5C1220.08 218.621 1219.35 220.443 1204 238.328C1181.73 264.275 1158.96 277.684 1135.32 278.78C1104.44 280.211 1079.22 264.464 1064.4 234.503C1055.07 215.637 1053.34 205.271 1054.2 173.5C1054.69 155.279 1055.02 152.389 1057.94 141.003C1067.26 104.586 1086.48 69.87 1109.29 48.283C1123.5 34.831 1137.21 29.401 1154.85 30.235C1169.35 30.92 1176.93 34.371 1182.73 42.927C1186.14 47.968 1188.9 57.167 1188.9 63.529C1188.9 70.264 1186.28 77.086 1180.27 86.018C1169.24 102.406 1167.21 109.29 1172.17 113.555C1175.34 116.278 1182.84 117.473 1188.62 116.173C1198.79 113.888 1206.73 106.5 1212.99 93.5C1218.16 82.775 1219.9 75.621 1220.55 62.5C1221 53.329 1220.76 50.485 1219.14 45.396C1215.01 32.423 1206.25 22.853 1191.97 15.714L1183.55 11.5L1164.48 11.525C1152.21 11.542 1143.26 12.032 1139.4 12.898C1115.26 18.318 1089.31 32.931 1069.97 51.995C1032.88 88.561 1013.93 137.878 1013.67 198.5C1013.59 217.752 1014.84 227.536 1019.02 240.315C1029.87 273.526 1054.04 297.676 1083.91 305.146C1091.51 307.048 1094.2 307.21 1109.41 306.688C1133.42 305.862 1146.93 302.73 1166.44 293.459C1180.68 286.699 1190.31 279.622 1205.5 264.771L1219.6 250.982L1220.28 262.741C1221.14 277.541 1223.53 292.791 1225.45 295.715C1228.31 300.084 1239.08 303.614 1252.78 304.67C1263.97 305.534 1269.43 302.887 1281.09 290.96C1288.69 283.184 1293.1 277.197 1306.58 256.342C1307.58 254.804 1307.78 255.508 1307.83 260.619C1307.97 274.934 1312.7 292.578 1317.64 297.202C1323.58 302.762 1326.31 303.5 1340.89 303.5C1353.74 303.5 1354.67 303.361 1360.38 300.597C1372.76 294.61 1390.83 272.975 1402.88 249.708C1405.36 244.932 1407.61 241.018 1407.88 241.012C1408.16 241.005 1408.38 252.137 1408.38 265.75C1408.38 294.932 1408.57 295.731 1416.24 299.457C1428.71 305.504 1443.04 306.495 1452.04 301.931C1461.58 297.091 1479.16 276.287 1489.99 257.011C1492.64 252.288 1493.62 252.01 1494.43 255.75C1499.23 277.988 1502.87 286.855 1509.91 293.435C1523.96 306.578 1544.98 308.541 1570.73 299.117C1593.74 290.697 1616.79 271.102 1627.22 251.083C1630.74 244.341 1635.29 230.945 1638.3 218.5L1639.99 211.5L1652.18 206.234C1680.48 194.001 1699.62 179.036 1695.89 172.06C1695.28 170.927 1694.02 170.002 1693.07 170.005C1692.13 170.007 1685.73 172.751 1678.86 176.101C1663.58 183.545 1645.67 191 1643.04 191C1641.38 191 1640.93 189.815 1639.85 182.75C1635 150.778 1619.19 132.767 1592.77 129.13C1585.82 128.173 1582.33 128.371 1567.67 130.557L1562.98 131.256L1564.43 125.878C1567.18 115.636 1572.81 86.329 1574.49 73.443C1576.78 55.808 1576.8 30.763 1574.51 21.5C1572.54 13.521 1569.01 5.28104 1566.46 2.73404C1563.73 0.00104165 1557.24 0.517042 1551.27 3.94204C1536.16 12.612 1517.22 44.868 1507.98 77.69C1504.2 91.104 1499.59 114.062 1496.96 132.5C1494.28 151.304 1492.95 169.465 1492.02 200L1491.24 225.5L1485.91 234.5C1476.41 250.51 1468.55 261.323 1460.28 269.75C1451.91 278.282 1448.87 279.72 1446.91 276.066C1444.71 271.949 1446.22 206.38 1448.91 189.385C1449.44 186.022 1451.04 179.722 1452.46 175.385C1455.43 166.363 1458.43 151.72 1459.41 141.5C1460.8 126.977 1456.7 117.044 1450.09 118.94C1442.91 120.998 1430.9 130.399 1423.97 139.379C1418.36 146.659 1417.17 151.024 1414.83 172.883C1412.5 194.699 1411.19 200.768 1406.47 211.788C1396.27 235.622 1385.33 253.665 1374 265.346C1365.36 274.248 1360.42 277.256 1355.16 276.806C1347.47 276.148 1345.27 266.884 1346.28 239.5C1347.41 209.133 1350.27 187.753 1356.53 163C1362.03 141.224 1363.82 127.729 1361.78 123.476C1358.54 116.706 1350.54 116.988 1340.13 124.239C1328.24 132.518 1317.21 142.095 1315.55 145.59C1313.21 150.498 1312.03 163.283 1311.24 192.5L1310.56 217.5L1305.62 227C1293.25 250.774 1271.92 278 1265.67 278C1260.47 278 1260.42 277.521 1260.1 225.181L1259.8 176.861L1265.46 164.681C1289.51 112.94 1301.15 64.785 1298.87 26.418C1298.2 15.249 1296.47 9.51704 1292.13 4.14604C1289.78 1.24304 1284.19 0.14804 1277.12 1.20304ZM1285.02 20.75C1286.5 24.513 1285.49 52.023 1283.46 63.5C1282.58 68.45 1280.49 78.06 1278.81 84.857C1275.51 98.186 1263.19 137 1262.25 137C1261.09 137 1266.02 80.948 1268.97 60.593C1272.37 37.1 1275.74 24.924 1280.11 20.264C1282.87 17.327 1283.71 17.41 1285.02 20.75ZM1562.46 38.761C1563.42 45.189 1562.22 69.774 1560.46 79.5C1556.45 101.735 1549.62 126.709 1538.99 158C1531.23 180.838 1531.39 180.932 1532.87 154.25C1535.64 104.355 1547.86 41.406 1556.67 31.671C1558.27 29.904 1558.38 29.914 1560.04 31.964C1560.99 33.131 1562.07 36.19 1562.46 38.761ZM360.553 49.107C346.256 51.192 328.348 57.56 316.129 64.905C284.397 83.978 263.829 114.134 257.406 151C255.049 164.532 255.896 185.867 259.332 199.5C273.338 255.078 321.675 293 378.511 293C404.119 293 426.153 286.155 448.778 271.171C449.758 270.522 448.382 268.654 443.423 263.899C431.517 252.483 420.263 235.343 414.496 219.845L412.764 215.19L405.614 219.045C396.453 223.984 388.583 226 378.466 226C362.886 226 350.813 220.905 339.44 209.53C328.272 198.363 322.956 185.864 322.986 170.856C323.017 155.098 328.141 142.811 339.44 131.4C353.325 117.375 372.438 111.958 391.872 116.54C401.411 118.789 409.563 123.539 417.493 131.47C428.223 142.2 433.951 155.124 433.97 168.644C434.056 229.949 476.935 281.114 536.992 291.575C550.68 293.959 572.998 293.107 586.034 289.702C638.082 276.108 673.644 234.705 679.075 181.378C682.957 143.269 666.466 102.657 636.945 77.626C598.09 44.68 544.782 38.655 499.885 62.135C494.62 64.889 489.03 68.164 487.464 69.413L484.617 71.683L492.387 79.063C503.162 89.3 511.905 101.359 518.096 114.523L523.352 125.703L530.419 121.89C540.611 116.392 548.373 114.648 559.95 115.254C589.882 116.82 612.321 140.492 612.321 170.5C612.321 186.169 606.987 199.003 595.904 210C574.248 231.489 539.675 231.516 518.057 210.06C506.367 198.457 502.334 188.083 500.928 166C499.902 149.879 496.946 136.002 491.993 124.05C475.659 84.637 440.898 56.911 398.584 49.546C389.079 47.891 370.365 47.675 360.553 49.107ZM0.997559 172.054V295.107L82.7408 294.746C153.568 294.433 165.69 294.163 173.513 292.724C212.35 285.58 234.679 269.087 241.456 242.54C244.775 229.535 242.453 208.912 236.461 198.19C229.947 186.535 218.756 176.28 205.965 170.247L198.265 166.616L203.897 162.976C212.424 157.464 216.493 153.512 221.782 145.603C228.559 135.47 231.433 126.021 231.395 114C231.295 82.302 208.64 59.764 169.578 52.501C154.095 49.623 137.081 49.032 69.2419 49.016L0.997559 49V172.054ZM705.939 171.989V295H746.936H787.932L787.963 264.25L787.995 233.5L797.213 223.73L806.431 213.96L836.928 254.444L867.426 294.927L915.231 294.963C953.22 294.992 962.88 294.743 962.278 293.75C961.862 293.063 939.225 262.816 911.973 226.535C884.722 190.254 862.041 159.813 861.57 158.889C860.889 157.553 870.624 146.302 909.066 103.991C935.66 74.721 957.568 50.374 957.751 49.887C957.942 49.379 938.918 49.01 913.255 49.024L868.426 49.049L828.429 93.21L788.432 137.371L787.932 93.435L787.432 49.5L746.686 49.239L705.939 48.978V171.989ZM136.472 109.362C144.197 112.721 147.985 118.031 147.985 125.5C147.985 132.962 144.212 138.258 136.472 141.654C133.127 143.122 128.515 143.467 107.739 143.803L82.9908 144.202V125.489V106.776L107.739 107.203C128.364 107.558 133.151 107.918 136.472 109.362ZM1587.18 149.07C1597.38 151.904 1606.59 169.874 1608.47 190.618L1609.14 198H1605.11C1600.3 198 1589.27 194.735 1582.49 191.303C1576.16 188.101 1568.92 180.806 1565.82 174.5C1562.57 167.88 1562.39 158.477 1565.44 154.323C1569.64 148.603 1578.12 146.553 1587.18 149.07ZM370.469 153.575C362.986 157.478 359.559 163.662 360.173 172.156C360.653 178.79 363.98 183.891 369.992 187.205C375.428 190.202 384.726 189.341 389.678 185.384C395.301 180.891 397.141 176.712 396.729 169.37C396.323 162.118 393.174 157.167 386.948 153.991C382.234 151.586 374.651 151.395 370.469 153.575ZM548.192 154.11C545.849 155.27 543.1 157.407 542.082 158.859C532.8 172.099 541.218 189 557.094 189C572.772 189 581.107 171.622 571.602 158.747C566.885 152.356 556.065 150.213 548.192 154.11ZM1548.19 197.168C1553.68 205.013 1562.3 211.231 1574.42 216.086C1581.43 218.892 1583.78 219.31 1595.1 219.769C1610.08 220.377 1609.39 219.442 1605.33 233.638C1599.7 253.35 1591.81 264.909 1577.84 273.939C1566.74 281.112 1552.82 283.578 1547.15 279.375C1538.89 273.259 1535.44 260.887 1532.8 227.986L1531.56 212.5L1536.97 200.801C1539.94 194.366 1542.63 189.416 1542.95 189.801C1543.26 190.185 1545.62 193.501 1548.19 197.168ZM145.104 200.016C154.258 202.559 159.451 209.068 159.451 217.996C159.451 225.382 156.467 230.18 149.631 233.786L144.486 236.5L113.738 236.815L82.9908 237.13V218.065V199L112.238 199.006C128.746 199.009 143.062 199.449 145.104 200.016Z" fill="#F8F6F0"/>
</svg>
