<svg width="3943" height="2281" viewBox="0 0 3943 2281" fill="none" xmlns="http://www.w3.org/2000/svg">
<path fill-rule="evenodd" clip-rule="evenodd" d="M972.539 10.7344C839.458 30.1425 672.766 89.4186 559.027 157.789C263.647 335.329 72.1883 616.035 12.4051 959.2C-9.53309 1085.16 -1.64947 1283.76 30.3317 1410.66C160.704 1928.01 610.647 2281 1139.71 2281C1378.07 2281 1583.18 2217.28 1793.78 2077.81C1802.9 2071.76 1790.1 2054.38 1743.93 2010.11C1633.1 1903.85 1528.35 1744.3 1474.67 1600.04L1458.55 1556.71L1391.99 1592.59C1306.71 1638.57 1233.46 1657.33 1139.29 1657.33C994.254 1657.33 881.873 1609.91 776.007 1504.02C672.059 1400.08 622.57 1283.73 622.849 1144.03C623.138 997.346 670.84 882.973 776.007 776.755C905.263 646.204 1083.17 595.78 1264.07 638.431C1352.87 659.366 1428.75 703.581 1502.56 777.406C1602.45 877.286 1655.76 997.588 1655.94 1123.44C1656.74 1694.09 2055.88 2170.36 2614.92 2267.74C2742.33 2289.93 2950.08 2282 3071.42 2250.3C3555.9 2123.76 3886.93 1738.36 3937.49 1241.97C3973.62 887.237 3820.12 509.202 3545.32 276.202C3183.64 -30.4742 2687.42 -86.5576 2269.51 132.005C2220.49 157.64 2168.46 188.125 2153.89 199.752L2127.39 220.882L2199.71 289.578C2300.01 384.869 2381.4 497.119 2439.02 619.656L2487.95 723.724L2553.73 688.231C2648.6 637.053 2720.86 620.819 2828.62 626.46C3107.24 641.037 3316.11 861.387 3316.11 1140.72C3316.11 1286.57 3266.46 1406.03 3163.3 1508.4C2961.71 1708.43 2639.89 1708.68 2438.66 1508.96C2329.84 1400.95 2292.3 1304.39 2279.22 1098.83C2269.67 948.766 2242.15 819.592 2196.04 708.338C2044 341.464 1720.43 83.3775 1326.55 14.8207C1238.08 -0.584745 1063.88 -2.59533 972.539 10.7344ZM1064.84 983.17C995.185 1019.5 963.287 1077.06 969.002 1156.13C973.47 1217.88 1004.45 1265.36 1060.4 1296.21C1111 1324.11 1197.55 1316.1 1243.65 1279.26C1295.99 1237.44 1313.12 1198.54 1309.28 1130.2C1305.5 1062.69 1276.19 1016.61 1218.23 987.042C1174.36 964.655 1103.77 962.877 1064.84 983.17ZM2719.17 988.15C2697.36 998.947 2671.77 1018.84 2662.29 1032.36C2575.89 1155.6 2654.25 1312.92 2802.03 1312.92C2947.97 1312.92 3025.55 1151.16 2937.08 1031.31C2893.17 971.823 2792.45 951.875 2719.17 988.15Z" fill="#1A1A1A"/>
</svg>
