<svg width="424" height="246" viewBox="0 0 424 246" fill="none" xmlns="http://www.w3.org/2000/svg">
<path fill-rule="evenodd" clip-rule="evenodd" d="M104.555 1.29747C90.2584 3.38247 72.3509 9.75046 60.1319 17.0955C28.3995 36.1685 7.83119 66.3245 1.40872 103.19C-0.948083 116.722 -0.101151 138.057 3.33456 151.69C17.3404 207.268 65.6774 245.19 122.514 245.19C148.122 245.19 170.156 238.345 192.781 223.361C193.761 222.712 192.385 220.844 187.425 216.089C175.519 204.673 164.265 187.533 158.499 172.035L156.767 167.38L149.616 171.235C140.455 176.174 132.586 178.19 122.469 178.19C106.888 178.19 94.815 173.095 83.442 161.72C72.2749 150.553 66.9583 138.054 66.9883 123.046C67.0193 107.288 72.1439 95.0015 83.442 83.5905C97.3278 69.5655 116.44 64.1485 135.875 68.7305C145.414 70.9795 153.565 75.7295 161.495 83.6605C172.226 94.3905 177.953 107.314 177.972 120.834C178.058 182.139 220.938 233.304 280.995 243.765C294.682 246.149 317.001 245.297 330.037 241.892C382.084 228.298 417.646 186.895 423.078 133.568C426.959 95.4595 410.469 54.8475 380.947 29.8165C342.093 -3.12953 288.784 -9.15453 243.888 14.3255C238.622 17.0795 233.033 20.3545 231.467 21.6035L228.62 23.8735L236.389 31.2535C247.164 41.4905 255.908 53.5495 262.098 66.7135L267.355 77.8935L274.421 74.0805C284.613 68.5825 292.376 66.8385 303.953 67.4445C333.884 69.0105 356.323 92.6825 356.323 122.69C356.323 138.359 350.99 151.193 339.907 162.19C318.251 183.679 283.677 183.706 262.059 162.25C250.369 150.647 246.336 140.273 244.931 118.19C243.905 102.069 240.949 88.1925 235.995 76.2405C219.662 36.8275 184.901 9.10147 142.586 1.73647C133.082 0.0814683 114.367 -0.134527 104.555 1.29747ZM114.471 105.765C106.988 109.668 103.561 115.852 104.175 124.346C104.655 130.98 107.983 136.081 113.994 139.395C119.43 142.392 128.728 141.531 133.681 137.574C139.303 133.081 141.143 128.902 140.731 121.56C140.325 114.308 137.176 109.357 130.95 106.181C126.236 103.776 118.653 103.585 114.471 105.765ZM292.195 106.3C289.852 107.46 287.102 109.597 286.084 111.049C276.802 124.289 285.22 141.19 301.096 141.19C316.775 141.19 325.109 123.812 315.605 110.937C310.887 104.546 300.067 102.403 292.195 106.3Z" fill="#F8F6F0"/>
</svg>
