<svg width="489" height="489" viewBox="0 0 489 489" fill="none" xmlns="http://www.w3.org/2000/svg">
<rect width="489" height="489" fill="#F8F0F6"/>
<rect x="45" y="45" width="400" height="400" rx="200" fill="#1A1A1A"/>
<path d="M252.719 321.636V308.597C252.719 298.455 254.892 289.077 259.239 280.464C263.666 271.852 270.065 264.929 278.436 259.697C286.807 254.465 297.03 251.849 309.104 251.849C321.419 251.849 331.762 254.465 340.134 259.697C348.585 264.849 354.944 271.731 359.21 280.344C363.557 288.876 365.73 298.294 365.73 308.597V321.636C365.73 331.778 363.557 341.156 359.21 349.768C354.864 358.381 348.464 365.304 340.013 370.536C331.561 375.768 321.258 378.384 309.104 378.384C296.869 378.384 286.566 375.768 278.195 370.536C269.823 365.304 263.464 358.381 259.118 349.768C254.852 341.156 252.719 331.778 252.719 321.636ZM291.234 308.597V321.636C291.234 326.788 292.482 331.738 294.977 336.487C297.553 341.236 302.262 343.611 309.104 343.611C316.107 343.611 320.815 341.317 323.23 336.729C325.645 332.06 326.852 327.029 326.852 321.636V308.597C326.852 303.204 325.685 298.133 323.351 293.384C321.097 288.554 316.348 286.139 309.104 286.139C302.342 286.139 297.674 288.554 295.098 293.384C292.522 298.133 291.234 303.204 291.234 308.597ZM124.494 180.131V167.091C124.494 156.788 126.708 147.37 131.135 138.838C135.643 130.225 142.082 123.343 150.453 118.192C158.824 112.96 168.966 110.344 180.879 110.344C193.195 110.344 203.538 112.96 211.909 118.192C220.361 123.343 226.76 130.225 231.107 138.838C235.453 147.37 237.626 156.788 237.626 167.091V180.131C237.626 190.434 235.413 199.851 230.986 208.384C226.639 216.916 220.24 223.717 211.788 228.788C203.337 233.859 193.034 236.395 180.879 236.395C168.725 236.395 158.422 233.819 149.97 228.668C141.599 223.516 135.24 216.674 130.893 208.142C126.627 199.61 124.494 190.273 124.494 180.131ZM163.372 167.091V180.131C163.372 185.524 164.62 190.554 167.115 195.223C169.691 199.811 174.279 202.105 180.879 202.105C187.963 202.105 192.671 199.811 195.006 195.223C197.42 190.554 198.628 185.524 198.628 180.131V167.091C198.628 161.698 197.501 156.627 195.247 151.878C192.993 147.048 188.204 144.634 180.879 144.634C174.118 144.634 169.49 147.089 166.994 151.999C164.58 156.909 163.372 161.939 163.372 167.091ZM142.726 368L312.726 120.727H345.688L175.688 368H142.726Z" fill="#F8F0F6"/>
<path d="M259.239 280.464L258.349 280.007L258.346 280.014L259.239 280.464ZM278.436 259.697L278.966 260.545L278.966 260.545L278.436 259.697ZM340.134 259.697L339.604 260.545L339.613 260.551L340.134 259.697ZM359.21 280.344L358.314 280.788L358.319 280.798L359.21 280.344ZM359.21 349.768L360.103 350.219L359.21 349.768ZM259.118 349.768L258.222 350.212L258.225 350.219L259.118 349.768ZM294.977 336.487L294.092 336.952L294.098 336.964L294.977 336.487ZM323.23 336.729L324.115 337.194L324.118 337.188L323.23 336.729ZM323.351 293.384L322.445 293.806L322.449 293.816L322.453 293.825L323.351 293.384ZM295.098 293.384L295.977 293.86L295.98 293.854L295.098 293.384ZM131.135 138.838L130.249 138.374L130.247 138.378L131.135 138.838ZM150.453 118.192L150.977 119.043L150.983 119.04L150.453 118.192ZM211.909 118.192L211.379 119.04L211.389 119.046L211.909 118.192ZM231.107 138.838L230.214 139.289L230.215 139.292L231.107 138.838ZM230.986 208.384L230.098 207.923L230.095 207.93L230.986 208.384ZM211.788 228.788L212.303 229.646L212.303 229.646L211.788 228.788ZM149.97 228.668L149.446 229.519L149.45 229.521L149.97 228.668ZM130.893 208.142L129.999 208.589L130.002 208.596L130.893 208.142ZM167.115 195.223L166.233 195.694L166.238 195.704L166.243 195.713L167.115 195.223ZM195.006 195.223L194.117 194.764L194.114 194.77L195.006 195.223ZM195.247 151.878L194.341 152.301L194.344 152.307L195.247 151.878ZM166.994 151.999L166.103 151.545L166.097 151.557L166.994 151.999ZM142.726 368L141.902 367.433L140.825 369H142.726V368ZM312.726 120.727V119.727H312.2L311.902 120.161L312.726 120.727ZM345.688 120.727L346.512 121.294L347.589 119.727H345.688V120.727ZM175.688 368V369H176.214L176.512 368.567L175.688 368ZM253.719 321.636V308.597H251.719V321.636H253.719ZM253.719 308.597C253.719 298.603 255.859 289.381 260.131 280.915L258.346 280.014C253.925 288.774 251.719 298.306 251.719 308.597H253.719ZM260.128 280.922C264.471 272.472 270.745 265.684 278.966 260.545L277.906 258.849C269.385 264.175 262.86 271.231 258.349 280.007L260.128 280.922ZM278.966 260.545C287.146 255.433 297.175 252.849 309.104 252.849V250.849C296.884 250.849 286.468 253.498 277.906 258.849L278.966 260.545ZM309.104 252.849C321.278 252.849 331.426 255.435 339.604 260.545L340.664 258.849C332.098 253.496 321.56 250.849 309.104 250.849V252.849ZM339.613 260.551C347.908 265.608 354.135 272.35 358.314 280.788L360.106 279.9C355.754 271.113 349.262 264.09 340.654 258.844L339.613 260.551ZM358.319 280.798C362.589 289.179 364.73 298.439 364.73 308.597H366.73C366.73 298.148 364.525 288.573 360.101 279.89L358.319 280.798ZM364.73 308.597V321.636H366.73V308.597H364.73ZM364.73 321.636C364.73 331.63 362.59 340.852 358.317 349.318L360.103 350.219C364.524 341.459 366.73 331.927 366.73 321.636H364.73ZM358.317 349.318C354.056 357.761 347.787 364.547 339.486 369.685L340.539 371.386C349.142 366.06 355.671 359.001 360.103 350.219L358.317 349.318ZM339.486 369.685C331.225 374.8 321.114 377.384 309.104 377.384V379.384C321.403 379.384 331.897 376.735 340.539 371.386L339.486 369.685ZM309.104 377.384C297.011 377.384 286.903 374.799 278.725 369.688L277.665 371.384C286.229 376.736 296.726 379.384 309.104 379.384V377.384ZM278.725 369.688C270.505 364.55 264.273 357.764 260.011 349.318L258.225 350.219C262.656 358.999 269.142 366.057 277.665 371.384L278.725 369.688ZM260.014 349.325C255.82 340.858 253.719 331.633 253.719 321.636H251.719C251.719 331.924 253.884 341.454 258.222 350.212L260.014 349.325ZM290.234 308.597V321.636H292.234V308.597H290.234ZM290.234 321.636C290.234 326.957 291.525 332.066 294.092 336.952L295.863 336.022C293.439 331.41 292.234 326.619 292.234 321.636H290.234ZM294.098 336.964C296.897 342.125 302.01 344.611 309.104 344.611V342.611C302.514 342.611 298.209 340.347 295.856 336.01L294.098 336.964ZM309.104 344.611C316.328 344.611 321.467 342.225 324.115 337.194L322.345 336.263C320.164 340.408 315.885 342.611 309.104 342.611V344.611ZM324.118 337.188C326.609 332.374 327.852 327.185 327.852 321.636H325.852C325.852 326.874 324.681 331.746 322.342 336.269L324.118 337.188ZM327.852 321.636V308.597H325.852V321.636H327.852ZM327.852 308.597C327.852 303.054 326.651 297.831 324.248 292.942L322.453 293.825C324.719 298.434 325.852 303.354 325.852 308.597H327.852ZM324.257 292.961C321.779 287.651 316.572 285.139 309.104 285.139V287.139C316.124 287.139 320.415 289.457 322.445 293.806L324.257 292.961ZM309.104 285.139C302.076 285.139 297.009 287.676 294.216 292.913L295.98 293.854C298.339 289.432 302.608 287.139 309.104 287.139V285.139ZM294.219 292.907C291.564 297.802 290.234 303.037 290.234 308.597H292.234C292.234 303.37 293.481 298.463 295.977 293.86L294.219 292.907ZM125.494 180.131V167.091H123.494V180.131H125.494ZM125.494 167.091C125.494 156.936 127.675 147.678 132.023 139.299L130.247 138.378C125.741 147.062 123.494 156.639 123.494 167.091H125.494ZM132.021 139.302C136.444 130.85 142.758 124.102 150.977 119.043L149.929 117.34C141.406 122.585 134.841 129.6 130.249 138.374L132.021 139.302ZM150.983 119.04C159.165 113.926 169.115 111.344 180.879 111.344V109.344C168.818 109.344 158.483 111.994 149.923 117.344L150.983 119.04ZM180.879 111.344C193.053 111.344 203.202 113.929 211.379 119.04L212.439 117.344C203.874 111.99 193.336 109.344 180.879 109.344V111.344ZM211.389 119.046C219.685 124.103 225.954 130.847 230.214 139.289L231.999 138.388C227.566 129.604 221.036 122.584 212.43 117.338L211.389 119.046ZM230.215 139.292C234.485 147.673 236.626 156.933 236.626 167.091H238.626C238.626 156.642 236.421 147.067 231.998 138.384L230.215 139.292ZM236.626 167.091V180.131H238.626V167.091H236.626ZM236.626 180.131C236.626 190.285 234.446 199.543 230.098 207.923L231.873 208.844C236.38 200.159 238.626 190.582 238.626 180.131H236.626ZM230.095 207.93C225.836 216.29 219.57 222.953 211.274 227.931L212.303 229.646C220.91 224.481 227.442 217.542 231.877 208.837L230.095 207.93ZM211.274 227.931C203.01 232.889 192.894 235.395 180.879 235.395V237.395C193.173 237.395 203.663 234.83 212.303 229.646L211.274 227.931ZM180.879 235.395C168.867 235.395 158.753 232.85 150.491 227.814L149.45 229.521C158.09 234.788 168.583 237.395 180.879 237.395V235.395ZM150.494 227.816C142.275 222.758 136.045 216.052 131.785 207.688L130.002 208.596C134.435 217.296 140.923 224.274 149.446 229.519L150.494 227.816ZM131.788 207.695C127.596 199.31 125.494 190.128 125.494 180.131H123.494C123.494 190.418 125.659 199.909 129.999 208.589L131.788 207.695ZM162.372 167.091V180.131H164.372V167.091H162.372ZM162.372 180.131C162.372 185.685 163.659 190.878 166.233 195.694L167.997 194.752C165.581 190.231 164.372 185.362 164.372 180.131H162.372ZM166.243 195.713C169.043 200.7 174.025 203.105 180.879 203.105V201.105C174.533 201.105 170.339 198.922 167.987 194.733L166.243 195.713ZM180.879 203.105C188.176 203.105 193.329 200.724 195.897 195.676L194.114 194.77C192.014 198.898 187.749 201.105 180.879 201.105V203.105ZM195.894 195.682C198.384 190.868 199.628 185.679 199.628 180.131H197.628C197.628 185.368 196.457 190.241 194.117 194.764L195.894 195.682ZM199.628 180.131V167.091H197.628V180.131H199.628ZM199.628 167.091C199.628 161.554 198.47 156.336 196.151 151.449L194.344 152.307C196.532 156.918 197.628 161.842 197.628 167.091H199.628ZM196.153 151.455C193.674 146.141 188.422 143.634 180.879 143.634V145.634C187.986 145.634 192.313 147.955 194.341 152.301L196.153 151.455ZM180.879 143.634C173.844 143.634 168.811 146.217 166.103 151.546L167.886 152.452C170.168 147.96 174.391 145.634 180.879 145.634V143.634ZM166.097 151.557C163.619 156.596 162.372 161.777 162.372 167.091H164.372C164.372 162.102 165.54 157.221 167.892 152.44L166.097 151.557ZM143.55 368.567L313.55 121.294L311.902 120.161L141.902 367.433L143.55 368.567ZM312.726 121.727H345.688V119.727H312.726V121.727ZM344.863 120.161L174.863 367.433L176.512 368.567L346.512 121.294L344.863 120.161ZM175.688 367H142.726V369H175.688V367Z" fill="black"/>
</svg>
