<svg width="210" height="210" viewBox="0 0 210 210" fill="none" xmlns="http://www.w3.org/2000/svg">
<rect width="210" height="210" fill="#F8F0F6"/>
<path fill-rule="evenodd" clip-rule="evenodd" d="M81.1881 51.6687L57.4787 75.3379L62.3362 80.1712L67.1938 85.0049L82.8491 69.3824L98.5045 53.7605V101.637V149.514H105.121H111.737V101.637V53.7605L127.392 69.3824L143.047 85.0049L147.905 80.1712L152.762 75.3379L129.053 51.6687C116.013 38.6509 105.244 28 105.121 28C104.998 28 94.2279 38.6509 81.1881 51.6687ZM31.1649 143.17C30.6612 144.48 31.403 158.107 32.1604 161.455C33.8955 169.127 37.5273 173.081 44.9144 175.341C48.9325 176.569 160.611 176.599 165.06 175.372C175.366 172.53 178.806 166.308 178.938 150.267L179 142.69H172.384H165.768L165.506 150.614C165.194 160.073 164.777 161.525 162.164 162.248C159.805 162.903 50.4366 162.903 48.0768 162.248C45.4644 161.525 45.0476 160.073 44.7349 150.614L44.4733 142.69L37.9582 142.568C32.249 142.461 31.4088 142.535 31.1649 143.17Z" fill="black"/>
</svg>
